<svg xmlns="http://www.w3.org/2000/svg" viewBox="0 0 1150 95.95">
  <defs>
    <style>
      .cls-1 {
        fill: #fff;
      }
    </style>
  </defs>
  <g id="logo">
    <path class="cls-1" d="M36.72,75l-1.66-7.13H18.74L15.33,75H.49l.11-.9L29.7,16.81h7.05L51.51,74.12l-.11.9ZM32.48,56.24A90.72,90.72,0,0,1,30.3,39.93a161.93,161.93,0,0,1-6.11,16.31Z"/>
    <path class="cls-1" d="M74.64,40.09c1.48,0,4.65.17,6.42-.9,2.22-1.31,3.3-4.76,5.54-11.64s8-12.63,19.41-9.84l-1.24,10.08c-2.51-.24-4.58.58-5.75,4.1-2.41,6.89-4.73,11.73-7.7,15.25,3.38,8.53,6.58,17.14,10.12,25.66L101.17,75H85.1L78.15,52.88a32.54,32.54,0,0,1-5.11.25L70.34,75H56.16l7.06-57.39H77.41Z"/>
    <path class="cls-1" d="M138.15,75l-1.67-7.13H120.17L116.75,75H101.91l.11-.9,29.11-57.31h7.05l14.75,57.31-.11.9ZM133.9,56.24a89.61,89.61,0,0,1-2.17-16.31,164.43,164.43,0,0,1-6.11,16.31Z"/>
    <path class="cls-1" d="M207,17.63l-5.5,44.68h4.68l-2.47,20H190.55l.89-7.29H167.75l-.9,7.29H153.9l2.46-20c5,0,6.35-1.64,7.54-7.3l8.21-37.38ZM177.53,55.5c-.36,2.3-1.35,5.66-3.34,7.14h13l4-32.14h-8.52Z"/>
    <path class="cls-1" d="M231.48,38.86h15.25L245.11,52H229.87l-1.16,9.35H246.1L244.41,75H212.93L220,17.63h30.83l-1.61,13H232.49Z"/>
    <path class="cls-1" d="M301.07,75H286.88l3.2-26L279.3,61.33h-1.56L270.08,49l-3.2,26H252.69L259.8,17.3h5l16.13,24.84L303.17,17.3h5Z"/>
    <path class="cls-1" d="M318.14,17.63h14.18L329,44.85l27.6-27.71H361L353.87,75H339.69l3.52-28.62-28,29H311Z"/>
    <path class="cls-1" d="M372.77,53.37c-4.62-3.77-6-9.51-5.24-16.07,1.46-11.8,10.3-19.67,22.1-19.67h20.25l-7.05,57.31H388.65l2.21-18h-5.42l-9.58,18h-15.5l.09-.74Zm21.58-22.79h-6.23c-3.44,0-6.08,2.79-6.6,7-.53,4.35,1.41,7.21,4.85,7.21h6.23Z"/>
    <path class="cls-1" d="M454.09,38.21c11.15,0,17.64,7.21,16.32,17.95C469,67.48,460.71,75,449.56,75H428.65l7.06-57.39h35.58l-1.59,13H448L447,38.21Zm-3,23.69c2.87,0,5.12-2.3,5.53-5.66s-1.28-5.57-4.15-5.57h-7L444.12,61.9Z"/>
    <path class="cls-1" d="M494.09,34.93h6.15c11.48,0,18.25,7.62,16.78,19.51C515.5,66.82,507.19,75,495.31,75H475L482,17.71h14.18Zm-3.58,27.13h6.39c3.36,0,6-2.87,6.55-7.21.55-4.51-1.38-7.46-4.74-7.46h-6.4Zm37.36-44.43H542L534.91,75H520.8Z"/>
    <path class="cls-1" d="M574.54,16.81c10.17,0,20.75,6.64,20.5,22H581.43c-.75-5.9-3.71-8.44-8.55-8.44-6.48,0-11.61,6.39-12.79,16-1.16,9.43,2.41,15.74,9,15.74,4.84,0,8.88-2.87,10.72-9.1h13.69c-3.81,16.32-15.6,22.8-26.17,22.8C552.37,75.76,543.81,64,546,46.4,548.17,28.61,559.62,16.81,574.54,16.81Z"/>
    <path class="cls-1" d="M637.41,17.63,635.8,30.75H624.57L619.12,75H605.34l5.45-44.27H599.48l1.61-13.12Z"/>
    <path class="cls-1" d="M664,17.63c11.89,0,18.53,8.61,16.54,21.48C679,51.73,670.27,59.77,658.79,59.77h-6.15l-1.86,15.17H636.59l7.06-57.31Zm-3.62,29.43c3.36,0,6.07-3.36,6.68-8.36.6-4.84-1.29-8.12-4.66-8.12H656l-2,16.48Z"/>
    <path class="cls-1" d="M705.27,75.84c-15.08,0-23.72-11.81-21.54-29.52s13.72-29.51,28.81-29.51,23.55,11.8,21.37,29.51S720.27,75.84,705.27,75.84Zm1.73-14c6.47,0,11.51-6.32,12.64-15.5s-2.36-15.41-8.84-15.41c-6.64,0-11.83,6.23-13,15.41S700.36,61.82,707,61.82Z"/>
    <path class="cls-1" d="M745,17.63h14.18l-3.35,27.22,27.6-27.71h4.43L780.72,75H766.54l3.52-28.62-28,29h-4.19ZM765.69,0c-.33,2.62,1.56,3.94,4.27,3.94s5.16-1.32,5.81-3.94L783,.9c-1.18,8.2-7,13-14.06,13S757.35,9.1,758.28.9Z"/>
    <path class="cls-1" d="M834,17.63c11.89,0,18.53,8.61,16.54,21.48-1.55,12.62-10.25,20.66-21.73,20.66h-6.15l-1.86,15.17H806.56l7.06-57.31Zm-3.62,29.43c3.36,0,6.07-3.36,6.68-8.36.6-4.84-1.29-8.12-4.65-8.12H826l-2,16.48Z"/>
    <path class="cls-1" d="M871.19,38.86h15.24L884.82,52H869.57l-1.15,9.35H885.8L884.12,75H852.63l7.07-57.39h30.82l-1.6,13H872.19Z"/>
    <path class="cls-1" d="M923.31,75l-1.67-7.13H905.33L901.91,75H887.07l.11-.9,29.11-57.31h7.05l14.75,57.31L938,75Zm-4.25-18.78a89.61,89.61,0,0,1-2.17-16.31,167,167,0,0,1-6.11,16.31Z"/>
    <path class="cls-1" d="M961.22,40.09c1.48,0,4.66.17,6.43-.9,2.21-1.31,3.29-4.76,5.53-11.64s8-12.63,19.41-9.84l-1.24,10.08c-2.51-.24-4.58.58-5.75,4.1-2.41,6.89-4.72,11.73-7.7,15.25,3.38,8.53,6.58,17.14,10.13,25.66L987.75,75H971.68l-6.95-22.14a32.48,32.48,0,0,1-5.11.25L956.93,75H942.74l7.06-57.39H964Z"/>
    <path class="cls-1" d="M1014.91,17.63l-5.4,43.86h11.89l5.39-43.86h14.27l-5.5,44.68H1040l-2.36,19.18h-10.91l.8-6.47H993.66l7.06-57.39Z"/>
    <path class="cls-1" d="M1053.85,17.63H1068l-3.35,27.22,27.59-27.71h4.43L1089.59,75H1075.4l3.53-28.62-28,29h-4.18Z"/>
    <path class="cls-1" d="M1106.66,17.63h14.18l-3.35,27.22,27.6-27.71h4.42L1142.39,75h-14.18l3.52-28.62-28,29h-4.19Z"/>
    <polygon class="cls-1" points="0 90.37 35.94 91.21 71.88 91.85 143.75 93.11 287.5 94.67 323.44 95.05 359.38 95.26 431.25 95.66 575 95.95 718.75 95.64 790.63 95.25 826.56 95.03 862.5 94.65 1006.25 93.09 1078.13 91.84 1114.06 91.21 1150 90.37 1150 89.71 575 89.38 0 89.71 0 90.37"/>
  </g>
</svg>
