<svg xmlns="http://www.w3.org/2000/svg" viewBox="0 0 145.95 58.21">
  <defs>
    <style>
      .cls-1 {
        fill: #fff;
      }
    </style>
  </defs>
  <g id="Layer_2" data-name="Layer 2">
    <g id="Layer_4" data-name="Layer 4">
      <g>
        <path class="cls-1" d="M36.24,58.21l-1.67-7.13H18.26l-3.42,7.13H0l.11-.9L29.22,0h7.05L51,57.31l-.11.9ZM32,39.44a89.8,89.8,0,0,1-2.17-16.32,164.46,164.46,0,0,1-6.11,16.32Z"/>
        <path class="cls-1" d="M81.46,21.4c11.15,0,17.64,7.21,16.32,18-1.39,11.32-9.7,18.86-20.85,18.86H56L63.09.82H98.67l-1.59,13H75.35l-.94,7.63Zm-3,23.69c2.87,0,5.12-2.29,5.54-5.65s-1.28-5.58-4.15-5.58h-7L71.49,45.09Z"/>
        <path class="cls-1" d="M129.06.82c11.88,0,18.53,8.61,16.54,21.48C144,34.93,135.35,43,123.87,43h-6.15l-1.87,15.17H101.67l7-57.31Zm-3.63,29.43c3.36,0,6.07-3.36,6.69-8.36.6-4.84-1.3-8.12-4.66-8.12h-6.39l-2,16.48Z"/>
      </g>
    </g>
  </g>
</svg>
