<?xml version="1.0" encoding="UTF-8"?>
<!DOCTYPE svg  PUBLIC '-//W3C//DTD SVG 1.1//EN'  'http://www.w3.org/Graphics/SVG/1.1/DTD/svg11.dtd'>
<svg version="1.1" xmlns="http://www.w3.org/2000/svg">
<defs>
<font id="Segment7Standard" horiz-adv-x="585">
<font-face font-family="Segment7" font-style="italic" font-weight="600" ascent="800" bbox="46 -21 608 780" cap-height="762" descent="-200" panose-1="2 0 5 9 0 0 0 0 0 0" slope="-3" underline-position="0" underline-thickness="0" unicode-range="U+0020-00FE" units-per-em="1000" x-height="394"/>
<missing-glyph/>
<glyph glyph-name="space" unicode=" "/>
<glyph d="M525 762q5 -13 5 -16q-2 -50 -8 -146q-6 -98 -8 -147l-35 -37l-56 42l12 214zM563 79q30 0 42 -30q3 -9 3 -19q0 -37 -32 -48q-9 -3 -17 -3q-30 0 -42 28q-4 11 -4 21q0 36 31 48q10 3 19 3z" glyph-name="exclam" unicode="!"/>
<glyph d="M82 717l86 -56l-12 -198l-79 -47l-11 24zM525 762q5 -13 5 -16q-2 -50 -8 -146q-6 -98 -8 -147l-35 -37l-56 42l12 214z" glyph-name="quotedbl" unicode='"'/>
<glyph d="M139 92h261q10 -13 32 -41q23 -28 33 -41q5 -5 5 -7q-2 -4 -10 -5h-172h-142h-71q-3 4 -11 13q-7 9 -10 13q-7 8 -7 11v1zM172 450h233l65 -51l-64 -44h-248q-3 3 -57 44q-5 4 -9 7zM525 762q5 -13 5 -16q-2 -50 -8 -146q-6 -98 -8 -147l-35 -37l-56 42l12 214z" glyph-name="numbersign" unicode="#"/>
<glyph d="M139 92h261q10 -13 32 -41q23 -28 33 -41q5 -5 5 -7q-2 -4 -10 -5h-172h-142h-71q-3 4 -11 13q-7 9 -10 13q-7 8 -7 11v1zM82 717l86 -56l-12 -198l-79 -47l-11 24zM155 780l359 -5l-91 -90h-255l-80 50zM475 388l34 -38l-19 -288l-18 -26l-66 79l12 227z" glyph-name="dollar" unicode="$"/>
<glyph d="M139 92h261q10 -13 32 -41q23 -28 33 -41q5 -5 5 -7q-2 -4 -10 -5h-172h-142h-71q-3 4 -11 13q-7 9 -10 13q-7 8 -7 11v1zM82 717l86 -56l-12 -198l-79 -47l-11 24zM155 780l359 -5l-91 -90h-255l-80 50zM475 388l34 -38l-19 -288l-18 -26l-66 79l12 227z" glyph-name="percent" unicode="%"/>
<glyph d="M172 450h233l65 -51l-64 -44h-248q-3 3 -57 44q-5 4 -9 7zM475 388l34 -38l-19 -288l-18 -26l-66 79l12 227zM525 762q5 -13 5 -16q-2 -50 -8 -146q-6 -98 -8 -147l-35 -37l-56 42l12 214z" glyph-name="ampersand" unicode="&amp;"/>
<glyph d="M525 762q5 -13 5 -16q-2 -50 -8 -146q-6 -98 -8 -147l-35 -37l-56 42l12 214z" glyph-name="quotesingle" unicode="'"/>
<glyph d="M139 92h261q10 -13 32 -41q23 -28 33 -41q5 -5 5 -7q-2 -4 -10 -5h-172h-142h-71q-3 4 -11 13q-7 9 -10 13q-7 8 -7 11v1zM77 394l74 -52l-12 -233l-92 -50l16 304q1 5 7 15q5 11 7 16zM82 717l86 -56l-12 -198l-79 -47l-11 24zM155 780l359 -5l-91 -90h-255l-80 50z" glyph-name="parenleft" unicode="("/>
<glyph d="M139 92h261q10 -13 32 -41q23 -28 33 -41q5 -5 5 -7q-2 -4 -10 -5h-172h-142h-71q-3 4 -11 13q-7 9 -10 13q-7 8 -7 11v1zM155 780l359 -5l-91 -90h-255l-80 50zM475 388l34 -38l-19 -288l-18 -26l-66 79l12 227zM525 762q5 -13 5 -16q-2 -50 -8 -146q-6 -98 -8 -147 l-35 -37l-56 42l12 214z" glyph-name="parenright" unicode=")"/>
<glyph d="M139 92h261q10 -13 32 -41q23 -28 33 -41q5 -5 5 -7q-2 -4 -10 -5h-172h-142h-71q-3 4 -11 13q-7 9 -10 13q-7 8 -7 11v1zM172 450h233l65 -51l-64 -44h-248q-3 3 -57 44q-5 4 -9 7zM525 762q5 -13 5 -16q-2 -50 -8 -146q-6 -98 -8 -147l-35 -37l-56 42l12 214z" glyph-name="asterisk" unicode="*"/>
<glyph d="M172 450h233l65 -51l-64 -44h-248q-3 3 -57 44q-5 4 -9 7zM475 388l34 -38l-19 -288l-18 -26l-66 79l12 227zM525 762q5 -13 5 -16q-2 -50 -8 -146q-6 -98 -8 -147l-35 -37l-56 42l12 214z" glyph-name="plus" unicode="+"/>
<glyph d="M139 92h261q10 -13 32 -41q23 -28 33 -41q5 -5 5 -7q-2 -4 -10 -5h-172h-142h-71q-3 4 -11 13q-7 9 -10 13q-7 8 -7 11v1zM475 388l34 -38l-19 -288l-18 -26l-66 79l12 227z" glyph-name="comma" unicode=","/>
<glyph d="M172 450h233l65 -51l-64 -44h-248q-3 3 -57 44q-5 4 -9 7z" glyph-name="hyphen" unicode="-"/>
<glyph d="M563 79q30 0 42 -30q3 -9 3 -19q0 -37 -32 -48q-9 -3 -17 -3q-30 0 -42 28q-4 11 -4 21q0 36 31 48q10 3 19 3z" glyph-name="period" unicode="."/>
<glyph d="M77 394l74 -52l-12 -233l-92 -50l16 304q1 5 7 15q5 11 7 16zM172 450h233l65 -51l-64 -44h-248q-3 3 -57 44q-5 4 -9 7zM525 762q5 -13 5 -16q-2 -50 -8 -146q-6 -98 -8 -147l-35 -37l-56 42l12 214z" glyph-name="slash" unicode="/"/>
<glyph d="M139 92h261q10 -13 32 -41q23 -28 33 -41q5 -5 5 -7q-2 -4 -10 -5h-172h-142h-71q-3 4 -11 13q-7 9 -10 13q-7 8 -7 11v1zM77 394l74 -52l-12 -233l-92 -50l16 304q1 5 7 15q5 11 7 16zM82 717l86 -56l-12 -198l-79 -47l-11 24zM155 780l359 -5l-91 -90h-255l-80 50z M475 388l34 -38l-19 -288l-18 -26l-66 79l12 227zM525 762q5 -13 5 -16q-2 -50 -8 -146q-6 -98 -8 -147l-35 -37l-56 42l12 214z" glyph-name="zero" unicode="0"/>
<glyph d="M475 388l34 -38l-19 -288l-18 -26l-66 79l12 227zM525 762q5 -13 5 -16q-2 -50 -8 -146q-6 -98 -8 -147l-35 -37l-56 42l12 214z" glyph-name="one" unicode="1"/>
<glyph d="M139 92h261q10 -13 32 -41q23 -28 33 -41q5 -5 5 -7q-2 -4 -10 -5h-172h-142h-71q-3 4 -11 13q-7 9 -10 13q-7 8 -7 11v1zM77 394l74 -52l-12 -233l-92 -50l16 304q1 5 7 15q5 11 7 16zM155 780l359 -5l-91 -90h-255l-80 50zM172 450h233l65 -51l-64 -44h-248 q-3 3 -57 44q-5 4 -9 7zM525 762q5 -13 5 -16q-2 -50 -8 -146q-6 -98 -8 -147l-35 -37l-56 42l12 214z" glyph-name="two" unicode="2"/>
<glyph d="M139 92h261q10 -13 32 -41q23 -28 33 -41q5 -5 5 -7q-2 -4 -10 -5h-172h-142h-71q-3 4 -11 13q-7 9 -10 13q-7 8 -7 11v1zM155 780l359 -5l-91 -90h-255l-80 50zM172 450h233l65 -51l-64 -44h-248q-3 3 -57 44q-5 4 -9 7zM475 388l34 -38l-19 -288l-18 -26l-66 79l12 227 zM525 762q5 -13 5 -16q-2 -50 -8 -146q-6 -98 -8 -147l-35 -37l-56 42l12 214z" glyph-name="three" unicode="3"/>
<glyph d="M82 717l86 -56l-12 -198l-79 -47l-11 24zM172 450h233l65 -51l-64 -44h-248q-3 3 -57 44q-5 4 -9 7zM475 388l34 -38l-19 -288l-18 -26l-66 79l12 227zM525 762q5 -13 5 -16q-2 -50 -8 -146q-6 -98 -8 -147l-35 -37l-56 42l12 214z" glyph-name="four" unicode="4"/>
<glyph d="M476 389l32 -38l-19 -289l-17 -26l-66 78l13 228zM171 450h233l66 -51l-64 -43h-248q-13 11 -40 30q-18 13 -26 20zM155 779l358 -3l-90 -91h-254l-80 51zM82 717l86 -55l-11 -199l-80 -47l-10 25zM138 92h262q10 -14 33 -41q23 -28 33 -41q5 -5 5 -7q-2 -4 -11 -5h-172 h-141h-72q-3 4 -11 12q-7 9 -10 13q-8 13 -8 12v2z" glyph-name="five" unicode="5"/>
<glyph d="M138 92h262q10 -14 33 -41q23 -28 33 -41q5 -5 5 -7q-2 -4 -11 -5h-172h-141h-72q-3 4 -11 12q-7 9 -10 13q-8 13 -8 12v2zM82 717l86 -55l-11 -199l-80 -47l-10 25zM155 779l358 -3l-90 -91h-254l-80 51zM171 450h233l66 -51l-64 -43h-248q-13 11 -40 30q-18 13 -26 20z M476 389l32 -38l-19 -289l-17 -26l-66 78l13 228zM76 393l75 -51l-12 -233l-92 -51l16 305q2 5 7 15z" glyph-name="six" unicode="6"/>
<glyph d="M155 780l359 -5l-91 -90h-255l-80 50zM475 388l34 -38l-19 -288l-18 -26l-66 79l12 227zM525 762q5 -13 5 -16q-2 -50 -8 -146q-6 -98 -8 -147l-35 -37l-56 42l12 214z" glyph-name="seven" unicode="7"/>
<glyph d="M139 92h261q10 -13 32 -41q23 -28 33 -41q5 -5 5 -7q-2 -4 -10 -5h-172h-142h-71q-3 4 -11 13q-7 9 -10 13q-7 8 -7 11v1zM77 394l74 -52l-12 -233l-92 -50l16 304q1 5 7 15q5 11 7 16zM82 717l86 -56l-12 -198l-79 -47l-11 24zM155 780l359 -5l-91 -90h-255l-80 50z M172 450h233l65 -51l-64 -44h-248q-3 3 -57 44q-5 4 -9 7zM475 388l34 -38l-19 -288l-18 -26l-66 79l12 227zM525 762q5 -13 5 -16q-2 -50 -8 -146q-6 -98 -8 -147l-35 -37l-56 42l12 214z" glyph-name="eight" unicode="8"/>
<glyph d="M139 92h261q10 -13 32 -41q23 -28 33 -41q5 -5 5 -7q-2 -4 -10 -5h-172h-142h-71q-3 4 -11 13q-7 9 -10 13q-7 8 -7 11v1zM82 717l86 -56l-12 -198l-79 -47l-11 24zM155 780l359 -5l-91 -90h-255l-80 50zM172 450h233l65 -51l-64 -44h-248q-3 3 -57 44q-5 4 -9 7z M475 388l34 -38l-19 -288l-18 -26l-66 79l12 227zM525 762q5 -13 5 -16q-2 -50 -8 -146q-6 -98 -8 -147l-35 -37l-56 42l12 214z" glyph-name="nine" unicode="9"/>
<glyph d="M172 450h233l65 -51l-64 -44h-248q-3 3 -57 44q-5 4 -9 7z" glyph-name="colon" unicode=":"/>
<glyph d="M525 762q5 -13 5 -16q-2 -50 -8 -146q-6 -98 -8 -147l-35 -37l-56 42l12 214zM563 79q30 0 42 -30q3 -9 3 -19q0 -37 -32 -48q-9 -3 -17 -3q-30 0 -42 28q-4 11 -4 21q0 36 31 48q10 3 19 3z" glyph-name="semicolon" unicode=";"/>
<glyph d="M139 92h261q10 -13 32 -41q23 -28 33 -41q5 -5 5 -7q-2 -4 -10 -5h-172h-142h-71q-3 4 -11 13q-7 9 -10 13q-7 8 -7 11v1zM77 394l74 -52l-12 -233l-92 -50l16 304q1 5 7 15q5 11 7 16zM172 450h233l65 -51l-64 -44h-248q-3 3 -57 44q-5 4 -9 7z" glyph-name="less" unicode="&lt;"/>
<glyph d="M139 92h261q10 -13 32 -41q23 -28 33 -41q5 -5 5 -7q-2 -4 -10 -5h-172h-142h-71q-3 4 -11 13q-7 9 -10 13q-7 8 -7 11v1zM172 450h233l65 -51l-64 -44h-248q-3 3 -57 44q-5 4 -9 7z" glyph-name="equal" unicode="="/>
<glyph d="M139 92h261q10 -13 32 -41q23 -28 33 -41q5 -5 5 -7q-2 -4 -10 -5h-172h-142h-71q-3 4 -11 13q-7 9 -10 13q-7 8 -7 11v1zM475 388l34 -38l-19 -288l-18 -26l-66 79l12 227z" glyph-name="greater" unicode="&gt;"/>
<glyph d="M77 394l74 -52l-12 -233l-92 -50l16 304q1 5 7 15q5 11 7 16zM155 780l359 -5l-91 -90h-255l-80 50zM172 450h233l65 -51l-64 -44h-248q-3 3 -57 44q-5 4 -9 7zM525 762q5 -13 5 -16q-2 -50 -8 -146q-6 -98 -8 -147l-35 -37l-56 42l12 214z" glyph-name="question" unicode="?"/>
<glyph d="M139 92h261q10 -13 32 -41q23 -28 33 -41q5 -5 5 -7q-2 -4 -10 -5h-172h-142h-71q-3 4 -11 13q-7 9 -10 13q-7 8 -7 11v1zM77 394l74 -52l-12 -233l-92 -50l16 304q1 5 7 15q5 11 7 16zM155 780l359 -5l-91 -90h-255l-80 50zM172 450h233l65 -51l-64 -44h-248 q-3 3 -57 44q-5 4 -9 7zM475 388l34 -38l-19 -288l-18 -26l-66 79l12 227zM525 762q5 -13 5 -16q-2 -50 -8 -146q-6 -98 -8 -147l-35 -37l-56 42l12 214z" glyph-name="at" unicode="@"/>
<glyph d="M77 394l74 -52l-12 -233l-92 -50l16 304q1 5 7 15q5 11 7 16zM82 717l86 -56l-12 -198l-79 -47l-11 24zM155 780l359 -5l-91 -90h-255l-80 50zM172 450h233l65 -51l-64 -44h-248q-3 3 -57 44q-5 4 -9 7zM475 388l34 -38l-19 -288l-18 -26l-66 79l12 227zM525 762 q5 -13 5 -16q-2 -50 -8 -146q-6 -98 -8 -147l-35 -37l-56 42l12 214z" glyph-name="A" unicode="A"/>
<glyph d="M139 92h261q10 -13 32 -41q23 -28 33 -41q5 -5 5 -7q-2 -4 -10 -5h-172h-142h-71q-3 4 -11 13q-7 9 -10 13q-7 8 -7 11v1zM77 394l74 -52l-12 -233l-92 -50l16 304q1 5 7 15q5 11 7 16zM82 717l86 -56l-12 -198l-79 -47l-11 24zM172 450h233l65 -51l-64 -44h-248 q-3 3 -57 44q-5 4 -9 7zM475 388l34 -38l-19 -288l-18 -26l-66 79l12 227z" glyph-name="B" unicode="B"/>
<glyph d="M139 92h261q10 -13 32 -41q23 -28 33 -41q5 -5 5 -7q-2 -4 -10 -5h-172h-142h-71q-3 4 -11 13q-7 9 -10 13q-7 8 -7 11v1zM77 394l74 -52l-12 -233l-92 -50l16 304q1 5 7 15q5 11 7 16zM82 717l86 -56l-12 -198l-79 -47l-11 24zM155 780l359 -5l-91 -90h-255l-80 50z" glyph-name="C" unicode="C"/>
<glyph d="M139 92h261q10 -13 32 -41q23 -28 33 -41q5 -5 5 -7q-2 -4 -10 -5h-172h-142h-71q-3 4 -11 13q-7 9 -10 13q-7 8 -7 11v1zM77 394l74 -52l-12 -233l-92 -50l16 304q1 5 7 15q5 11 7 16zM172 450h233l65 -51l-64 -44h-248q-3 3 -57 44q-5 4 -9 7zM475 388l34 -38l-19 -288 l-18 -26l-66 79l12 227zM525 762q5 -13 5 -16q-2 -50 -8 -146q-6 -98 -8 -147l-35 -37l-56 42l12 214z" glyph-name="D" unicode="D"/>
<glyph d="M139 92h261q10 -13 32 -41q23 -28 33 -41q5 -5 5 -7q-2 -4 -10 -5h-172h-142h-71q-3 4 -11 13q-7 9 -10 13q-7 8 -7 11v1zM77 394l74 -52l-12 -233l-92 -50l16 304q1 5 7 15q5 11 7 16zM82 717l86 -56l-12 -198l-79 -47l-11 24zM155 780l359 -5l-91 -90h-255l-80 50z M172 450h233l65 -51l-64 -44h-248q-3 3 -57 44q-5 4 -9 7z" glyph-name="E" unicode="E"/>
<glyph d="M77 394l74 -52l-12 -233l-92 -50l16 304q1 5 7 15q5 11 7 16zM82 717l86 -56l-12 -198l-79 -47l-11 24zM155 780l359 -5l-91 -90h-255l-80 50zM172 450h233l65 -51l-64 -44h-248q-3 3 -57 44q-5 4 -9 7z" glyph-name="F" unicode="F"/>
<glyph d="M139 92h261q10 -13 32 -41q23 -28 33 -41q5 -5 5 -7q-2 -4 -10 -5h-172h-142h-71q-3 4 -11 13q-7 9 -10 13q-7 8 -7 11v1zM77 394l74 -52l-12 -233l-92 -50l16 304q1 5 7 15q5 11 7 16zM82 717l86 -56l-12 -198l-79 -47l-11 24zM155 780l359 -5l-91 -90h-255l-80 50z M475 388l34 -38l-19 -288l-18 -26l-66 79l12 227z" glyph-name="G" unicode="G"/>
<glyph d="M77 394l74 -52l-12 -233l-92 -50l16 304q1 5 7 15q5 11 7 16zM82 717l86 -56l-12 -198l-79 -47l-11 24zM172 450h233l65 -51l-64 -44h-248q-3 3 -57 44q-5 4 -9 7zM475 388l34 -38l-19 -288l-18 -26l-66 79l12 227zM525 762q5 -13 5 -16q-2 -50 -8 -146q-6 -98 -8 -147 l-35 -37l-56 42l12 214z" glyph-name="H" unicode="H"/>
<glyph d="M475 388l34 -38l-19 -288l-18 -26l-66 79l12 227zM525 762q5 -13 5 -16q-2 -50 -8 -146q-6 -98 -8 -147l-35 -37l-56 42l12 214z" glyph-name="I" unicode="I"/>
<glyph d="M139 92h261q10 -13 32 -41q23 -28 33 -41q5 -5 5 -7q-2 -4 -10 -5h-172h-142h-71q-3 4 -11 13q-7 9 -10 13q-7 8 -7 11v1zM77 394l74 -52l-12 -233l-92 -50l16 304q1 5 7 15q5 11 7 16zM475 388l34 -38l-19 -288l-18 -26l-66 79l12 227zM525 762q5 -13 5 -16 q-2 -50 -8 -146q-6 -98 -8 -147l-35 -37l-56 42l12 214z" glyph-name="J" unicode="J"/>
<glyph d="M77 394l74 -52l-12 -233l-92 -50l16 304q1 5 7 15q5 11 7 16zM82 717l86 -56l-12 -198l-79 -47l-11 24zM155 780l359 -5l-91 -90h-255l-80 50zM172 450h233l65 -51l-64 -44h-248q-3 3 -57 44q-5 4 -9 7zM475 388l34 -38l-19 -288l-18 -26l-66 79l12 227z" glyph-name="K" unicode="K"/>
<glyph d="M139 92h261q10 -13 32 -41q23 -28 33 -41q5 -5 5 -7q-2 -4 -10 -5h-172h-142h-71q-3 4 -11 13q-7 9 -10 13q-7 8 -7 11v1zM77 394l74 -52l-12 -233l-92 -50l16 304q1 5 7 15q5 11 7 16zM82 717l86 -56l-12 -198l-79 -47l-11 24z" glyph-name="L" unicode="L"/>
<glyph d="M77 394l74 -52l-12 -233l-92 -50l16 304q1 5 7 15q5 11 7 16zM172 450h233l65 -51l-64 -44h-248q-3 3 -57 44q-5 4 -9 7zM475 388l34 -38l-19 -288l-18 -26l-66 79l12 227zM525 762q5 -13 5 -16q-2 -50 -8 -146q-6 -98 -8 -147l-35 -37l-56 42l12 214z" glyph-name="M" unicode="M"/>
<glyph d="M77 394l74 -52l-12 -233l-92 -50l16 304q1 5 7 15q5 11 7 16zM82 717l86 -56l-12 -198l-79 -47l-11 24zM155 780l359 -5l-91 -90h-255l-80 50zM475 388l34 -38l-19 -288l-18 -26l-66 79l12 227zM525 762q5 -13 5 -16q-2 -50 -8 -146q-6 -98 -8 -147l-35 -37l-56 42 l12 214z" glyph-name="N" unicode="N"/>
<glyph d="M139 92h261q10 -13 32 -41q23 -28 33 -41q5 -5 5 -7q-2 -4 -10 -5h-172h-142h-71q-3 4 -11 13q-7 9 -10 13q-7 8 -7 11v1zM77 394l74 -52l-12 -233l-92 -50l16 304q1 5 7 15q5 11 7 16zM82 717l86 -56l-12 -198l-79 -47l-11 24zM155 780l359 -5l-91 -90h-255l-80 50z M475 388l34 -38l-19 -288l-18 -26l-66 79l12 227zM525 762q5 -13 5 -16q-2 -50 -8 -146q-6 -98 -8 -147l-35 -37l-56 42l12 214z" glyph-name="O" unicode="O"/>
<glyph d="M77 394l74 -52l-12 -233l-92 -50l16 304q1 5 7 15q5 11 7 16zM82 717l86 -56l-12 -198l-79 -47l-11 24zM155 780l359 -5l-91 -90h-255l-80 50zM172 450h233l65 -51l-64 -44h-248q-3 3 -57 44q-5 4 -9 7zM525 762q5 -13 5 -16q-2 -50 -8 -146q-6 -98 -8 -147l-35 -37 l-56 42l12 214z" glyph-name="P" unicode="P"/>
<glyph d="M82 717l86 -56l-12 -198l-79 -47l-11 24zM155 780l359 -5l-91 -90h-255l-80 50zM172 450h233l65 -51l-64 -44h-248q-3 3 -57 44q-5 4 -9 7zM475 388l34 -38l-19 -288l-18 -26l-66 79l12 227zM525 762q5 -13 5 -16q-2 -50 -8 -146q-6 -98 -8 -147l-35 -37l-56 42l12 214z " glyph-name="Q" unicode="Q"/>
<glyph d="M77 394l74 -52l-12 -233l-92 -50l16 304q1 5 7 15q5 11 7 16zM172 450h233l65 -51l-64 -44h-248q-3 3 -57 44q-5 4 -9 7z" glyph-name="R" unicode="R"/>
<glyph d="M138 92h262q10 -14 33 -41q23 -28 33 -41q5 -5 5 -7q-2 -4 -11 -5h-172h-141h-72q-3 4 -11 12q-7 9 -10 13q-8 13 -8 12v2zM82 717l86 -55l-11 -199l-80 -47l-10 25zM155 779l358 -3l-90 -91h-254l-80 51zM171 450h233l66 -51l-64 -43h-248q-13 11 -40 30q-18 13 -26 20z M476 389l32 -38l-19 -289l-17 -26l-66 78l13 228z" glyph-name="S" unicode="S"/>
<glyph d="M139 92h261q10 -13 32 -41q23 -28 33 -41q5 -5 5 -7q-2 -4 -10 -5h-172h-142h-71q-3 4 -11 13q-7 9 -10 13q-7 8 -7 11v1zM77 394l74 -52l-12 -233l-92 -50l16 304q1 5 7 15q5 11 7 16zM82 717l86 -56l-12 -198l-79 -47l-11 24zM172 450h233l65 -51l-64 -44h-248 q-3 3 -57 44q-5 4 -9 7z" glyph-name="T" unicode="T"/>
<glyph d="M139 92h261q10 -13 32 -41q23 -28 33 -41q5 -5 5 -7q-2 -4 -10 -5h-172h-142h-71q-3 4 -11 13q-7 9 -10 13q-7 8 -7 11v1zM77 394l74 -52l-12 -233l-92 -50l16 304q1 5 7 15q5 11 7 16zM82 717l86 -56l-12 -198l-79 -47l-11 24zM475 388l34 -38l-19 -288l-18 -26l-66 79 l12 227zM525 762q5 -13 5 -16q-2 -50 -8 -146q-6 -98 -8 -147l-35 -37l-56 42l12 214z" glyph-name="U" unicode="U"/>
<glyph d="M139 92h261q10 -13 32 -41q23 -28 33 -41q5 -5 5 -7q-2 -4 -10 -5h-172h-142h-71q-3 4 -11 13q-7 9 -10 13q-7 8 -7 11v1zM77 394l74 -52l-12 -233l-92 -50l16 304q1 5 7 15q5 11 7 16zM82 717l86 -56l-12 -198l-79 -47l-11 24zM475 388l34 -38l-19 -288l-18 -26l-66 79 l12 227zM525 762q5 -13 5 -16q-2 -50 -8 -146q-6 -98 -8 -147l-35 -37l-56 42l12 214z" glyph-name="V" unicode="V"/>
<glyph d="M139 92h261q10 -13 32 -41q23 -28 33 -41q5 -5 5 -7q-2 -4 -10 -5h-172h-142h-71q-3 4 -11 13q-7 9 -10 13q-7 8 -7 11v1zM77 394l74 -52l-12 -233l-92 -50l16 304q1 5 7 15q5 11 7 16zM82 717l86 -56l-12 -198l-79 -47l-11 24zM172 450h233l65 -51l-64 -44h-248 q-3 3 -57 44q-5 4 -9 7zM475 388l34 -38l-19 -288l-18 -26l-66 79l12 227zM525 762q5 -13 5 -16q-2 -50 -8 -146q-6 -98 -8 -147l-35 -37l-56 42l12 214z" glyph-name="W" unicode="W"/>
<glyph d="M139 92h261q10 -13 32 -41q23 -28 33 -41q5 -5 5 -7q-2 -4 -10 -5h-172h-142h-71q-3 4 -11 13q-7 9 -10 13q-7 8 -7 11v1zM155 780l359 -5l-91 -90h-255l-80 50zM172 450h233l65 -51l-64 -44h-248q-3 3 -57 44q-5 4 -9 7z" glyph-name="X" unicode="X"/>
<glyph d="M139 92h261q10 -13 32 -41q23 -28 33 -41q5 -5 5 -7q-2 -4 -10 -5h-172h-142h-71q-3 4 -11 13q-7 9 -10 13q-7 8 -7 11v1zM82 717l86 -56l-12 -198l-79 -47l-11 24zM172 450h233l65 -51l-64 -44h-248q-3 3 -57 44q-5 4 -9 7zM475 388l34 -38l-19 -288l-18 -26l-66 79 l12 227zM525 762q5 -13 5 -16q-2 -50 -8 -146q-6 -98 -8 -147l-35 -37l-56 42l12 214z" glyph-name="Y" unicode="Y"/>
<glyph d="M77 394l74 -52l-12 -233l-92 -50l16 304q1 5 7 15q5 11 7 16zM155 780l359 -5l-91 -90h-255l-80 50zM172 450h233l65 -51l-64 -44h-248q-3 3 -57 44q-5 4 -9 7zM525 762q5 -13 5 -16q-2 -50 -8 -146q-6 -98 -8 -147l-35 -37l-56 42l12 214z" glyph-name="Z" unicode="Z"/>
<glyph d="M139 92h261q10 -13 32 -41q23 -28 33 -41q5 -5 5 -7q-2 -4 -10 -5h-172h-142h-71q-3 4 -11 13q-7 9 -10 13q-7 8 -7 11v1zM77 394l74 -52l-12 -233l-92 -50l16 304q1 5 7 15q5 11 7 16zM82 717l86 -56l-12 -198l-79 -47l-11 24zM155 780l359 -5l-91 -90h-255l-80 50z" glyph-name="bracketleft" unicode="["/>
<glyph d="M82 717l86 -56l-12 -198l-79 -47l-11 24zM172 450h233l65 -51l-64 -44h-248q-3 3 -57 44q-5 4 -9 7zM475 388l34 -38l-19 -288l-18 -26l-66 79l12 227z" glyph-name="backslash" unicode="\"/>
<glyph d="M139 92h261q10 -13 32 -41q23 -28 33 -41q5 -5 5 -7q-2 -4 -10 -5h-172h-142h-71q-3 4 -11 13q-7 9 -10 13q-7 8 -7 11v1zM155 780l359 -5l-91 -90h-255l-80 50zM475 388l34 -38l-19 -288l-18 -26l-66 79l12 227zM525 762q5 -13 5 -16q-2 -50 -8 -146q-6 -98 -8 -147 l-35 -37l-56 42l12 214z" glyph-name="bracketright" unicode="]"/>
<glyph d="M82 717l86 -56l-12 -198l-79 -47l-11 24zM155 780l359 -5l-91 -90h-255l-80 50zM525 762q5 -13 5 -16q-2 -50 -8 -146q-6 -98 -8 -147l-35 -37l-56 42l12 214z" glyph-name="asciicircum" unicode="^"/>
<glyph d="M172 450h233l65 -51l-64 -44h-248q-3 3 -57 44q-5 4 -9 7z" glyph-name="underscore" unicode="_"/>
<glyph d="M525 762q5 -13 5 -16q-2 -50 -8 -146q-6 -98 -8 -147l-35 -37l-56 42l12 214z" glyph-name="grave" unicode="`"/>
<glyph d="M139 92h261q10 -13 32 -41q23 -28 33 -41q5 -5 5 -7q-2 -4 -10 -5h-172h-142h-71q-3 4 -11 13q-7 9 -10 13q-7 8 -7 11v1zM77 394l74 -52l-12 -233l-92 -50l16 304q1 5 7 15q5 11 7 16zM155 780l359 -5l-91 -90h-255l-80 50zM172 450h233l65 -51l-64 -44h-248 q-3 3 -57 44q-5 4 -9 7zM475 388l34 -38l-19 -288l-18 -26l-66 79l12 227zM525 762q5 -13 5 -16q-2 -50 -8 -146q-6 -98 -8 -147l-35 -37l-56 42l12 214z" glyph-name="a" unicode="a"/>
<glyph d="M139 92h261q10 -13 32 -41q23 -28 33 -41q5 -5 5 -7q-2 -4 -10 -5h-172h-142h-71q-3 4 -11 13q-7 9 -10 13q-7 8 -7 11v1zM77 394l74 -52l-12 -233l-92 -50l16 304q1 5 7 15q5 11 7 16zM82 717l86 -56l-12 -198l-79 -47l-11 24zM172 450h233l65 -51l-64 -44h-248 q-3 3 -57 44q-5 4 -9 7zM475 388l34 -38l-19 -288l-18 -26l-66 79l12 227z" glyph-name="b" unicode="b"/>
<glyph d="M139 92h261q10 -13 32 -41q23 -28 33 -41q5 -5 5 -7q-2 -4 -10 -5h-172h-142h-71q-3 4 -11 13q-7 9 -10 13q-7 8 -7 11v1zM77 394l74 -52l-12 -233l-92 -50l16 304q1 5 7 15q5 11 7 16zM172 450h233l65 -51l-64 -44h-248q-3 3 -57 44q-5 4 -9 7z" glyph-name="c" unicode="c"/>
<glyph d="M139 92h261q10 -13 32 -41q23 -28 33 -41q5 -5 5 -7q-2 -4 -10 -5h-172h-142h-71q-3 4 -11 13q-7 9 -10 13q-7 8 -7 11v1zM77 394l74 -52l-12 -233l-92 -50l16 304q1 5 7 15q5 11 7 16zM172 450h233l65 -51l-64 -44h-248q-3 3 -57 44q-5 4 -9 7zM475 388l34 -38l-19 -288 l-18 -26l-66 79l12 227zM525 762q5 -13 5 -16q-2 -50 -8 -146q-6 -98 -8 -147l-35 -37l-56 42l12 214z" glyph-name="d" unicode="d"/>
<glyph d="M139 92h261q10 -13 32 -41q23 -28 33 -41q5 -5 5 -7q-2 -4 -10 -5h-172h-142h-71q-3 4 -11 13q-7 9 -10 13q-7 8 -7 11v1zM77 394l74 -52l-12 -233l-92 -50l16 304q1 5 7 15q5 11 7 16zM82 717l86 -56l-12 -198l-79 -47l-11 24zM155 780l359 -5l-91 -90h-255l-80 50z M172 450h233l65 -51l-64 -44h-248q-3 3 -57 44q-5 4 -9 7zM525 762q5 -13 5 -16q-2 -50 -8 -146q-6 -98 -8 -147l-35 -37l-56 42l12 214z" glyph-name="e" unicode="e"/>
<glyph d="M77 394l74 -52l-12 -233l-92 -50l16 304q1 5 7 15q5 11 7 16zM82 717l86 -56l-12 -198l-79 -47l-11 24zM155 780l359 -5l-91 -90h-255l-80 50zM172 450h233l65 -51l-64 -44h-248q-3 3 -57 44q-5 4 -9 7z" glyph-name="f" unicode="f"/>
<glyph d="M139 92h261q10 -13 32 -41q23 -28 33 -41q5 -5 5 -7q-2 -4 -10 -5h-172h-142h-71q-3 4 -11 13q-7 9 -10 13q-7 8 -7 11v1zM82 717l86 -56l-12 -198l-79 -47l-11 24zM155 780l359 -5l-91 -90h-255l-80 50zM172 450h233l65 -51l-64 -44h-248q-3 3 -57 44q-5 4 -9 7z M475 388l34 -38l-19 -288l-18 -26l-66 79l12 227zM525 762q5 -13 5 -16q-2 -50 -8 -146q-6 -98 -8 -147l-35 -37l-56 42l12 214z" glyph-name="g" unicode="g"/>
<glyph d="M77 394l74 -52l-12 -233l-92 -50l16 304q1 5 7 15q5 11 7 16zM82 717l86 -56l-12 -198l-79 -47l-11 24zM172 450h233l65 -51l-64 -44h-248q-3 3 -57 44q-5 4 -9 7zM475 388l34 -38l-19 -288l-18 -26l-66 79l12 227z" glyph-name="h" unicode="h"/>
<glyph d="M475 388l34 -38l-19 -288l-18 -26l-66 79l12 227z" glyph-name="i" unicode="i"/>
<glyph d="M139 92h261q10 -13 32 -41q23 -28 33 -41q5 -5 5 -7q-2 -4 -10 -5h-172h-142h-71q-3 4 -11 13q-7 9 -10 13q-7 8 -7 11v1zM77 394l74 -52l-12 -233l-92 -50l16 304q1 5 7 15q5 11 7 16zM475 388l34 -38l-19 -288l-18 -26l-66 79l12 227zM525 762q5 -13 5 -16 q-2 -50 -8 -146q-6 -98 -8 -147l-35 -37l-56 42l12 214z" glyph-name="j" unicode="j"/>
<glyph d="M77 394l74 -52l-12 -233l-92 -50l16 304q1 5 7 15q5 11 7 16zM82 717l86 -56l-12 -198l-79 -47l-11 24zM155 780l359 -5l-91 -90h-255l-80 50zM172 450h233l65 -51l-64 -44h-248q-3 3 -57 44q-5 4 -9 7zM475 388l34 -38l-19 -288l-18 -26l-66 79l12 227z" glyph-name="k" unicode="k"/>
<glyph d="M139 92h261q10 -13 32 -41q23 -28 33 -41q5 -5 5 -7q-2 -4 -10 -5h-172h-142h-71q-3 4 -11 13q-7 9 -10 13q-7 8 -7 11v1zM77 394l74 -52l-12 -233l-92 -50l16 304q1 5 7 15q5 11 7 16zM82 717l86 -56l-12 -198l-79 -47l-11 24z" glyph-name="l" unicode="l"/>
<glyph d="M77 394l74 -52l-12 -233l-92 -50l16 304q1 5 7 15q5 11 7 16zM82 717l86 -56l-12 -198l-79 -47l-11 24zM172 450h233l65 -51l-64 -44h-248q-3 3 -57 44q-5 4 -9 7zM525 762q5 -13 5 -16q-2 -50 -8 -146q-6 -98 -8 -147l-35 -37l-56 42l12 214z" glyph-name="m" unicode="m"/>
<glyph d="M77 394l74 -52l-12 -233l-92 -50l16 304q1 5 7 15q5 11 7 16zM172 450h233l65 -51l-64 -44h-248q-3 3 -57 44q-5 4 -9 7zM475 388l34 -38l-19 -288l-18 -26l-66 79l12 227z" glyph-name="n" unicode="n"/>
<glyph d="M139 92h261q10 -13 32 -41q23 -28 33 -41q5 -5 5 -7q-2 -4 -10 -5h-172h-142h-71q-3 4 -11 13q-7 9 -10 13q-7 8 -7 11v1zM77 394l74 -52l-12 -233l-92 -50l16 304q1 5 7 15q5 11 7 16zM172 450h233l65 -51l-64 -44h-248q-3 3 -57 44q-5 4 -9 7zM475 388l34 -38l-19 -288 l-18 -26l-66 79l12 227z" glyph-name="o" unicode="o"/>
<glyph d="M77 394l74 -52l-12 -233l-92 -50l16 304q1 5 7 15q5 11 7 16zM82 717l86 -56l-12 -198l-79 -47l-11 24zM155 780l359 -5l-91 -90h-255l-80 50zM172 450h233l65 -51l-64 -44h-248q-3 3 -57 44q-5 4 -9 7zM525 762q5 -13 5 -16q-2 -50 -8 -146q-6 -98 -8 -147l-35 -37 l-56 42l12 214z" glyph-name="p" unicode="p"/>
<glyph d="M82 717l86 -56l-12 -198l-79 -47l-11 24zM155 780l359 -5l-91 -90h-255l-80 50zM172 450h233l65 -51l-64 -44h-248q-3 3 -57 44q-5 4 -9 7zM475 388l34 -38l-19 -288l-18 -26l-66 79l12 227zM525 762q5 -13 5 -16q-2 -50 -8 -146q-6 -98 -8 -147l-35 -37l-56 42l12 214z " glyph-name="q" unicode="q"/>
<glyph d="M77 394l74 -52l-12 -233l-92 -50l16 304q1 5 7 15q5 11 7 16zM172 450h233l65 -51l-64 -44h-248q-3 3 -57 44q-5 4 -9 7z" glyph-name="r" unicode="r"/>
<glyph d="M138 92h262q10 -14 33 -41q23 -28 33 -41q5 -5 5 -7q-2 -4 -11 -5h-172h-141h-72q-3 4 -11 12q-7 9 -10 13q-8 13 -8 12v2zM82 717l86 -55l-11 -199l-80 -47l-10 25zM155 779l358 -3l-90 -91h-254l-80 51zM171 450h233l66 -51l-64 -43h-248q-13 11 -40 30q-18 13 -26 20z M476 389l32 -38l-19 -289l-17 -26l-66 78l13 228z" glyph-name="s" unicode="s"/>
<glyph d="M139 92h261q10 -13 32 -41q23 -28 33 -41q5 -5 5 -7q-2 -4 -10 -5h-172h-142h-71q-3 4 -11 13q-7 9 -10 13q-7 8 -7 11v1zM77 394l74 -52l-12 -233l-92 -50l16 304q1 5 7 15q5 11 7 16zM82 717l86 -56l-12 -198l-79 -47l-11 24zM172 450h233l65 -51l-64 -44h-248 q-3 3 -57 44q-5 4 -9 7z" glyph-name="t" unicode="t"/>
<glyph d="M139 92h261q10 -13 32 -41q23 -28 33 -41q5 -5 5 -7q-2 -4 -10 -5h-172h-142h-71q-3 4 -11 13q-7 9 -10 13q-7 8 -7 11v1zM77 394l74 -52l-12 -233l-92 -50l16 304q1 5 7 15q5 11 7 16zM475 388l34 -38l-19 -288l-18 -26l-66 79l12 227z" glyph-name="u" unicode="u"/>
<glyph d="M139 92h261q10 -13 32 -41q23 -28 33 -41q5 -5 5 -7q-2 -4 -10 -5h-172h-142h-71q-3 4 -11 13q-7 9 -10 13q-7 8 -7 11v1zM77 394l74 -52l-12 -233l-92 -50l16 304q1 5 7 15q5 11 7 16zM82 717l86 -56l-12 -198l-79 -47l-11 24zM475 388l34 -38l-19 -288l-18 -26l-66 79 l12 227zM525 762q5 -13 5 -16q-2 -50 -8 -146q-6 -98 -8 -147l-35 -37l-56 42l12 214z" glyph-name="v" unicode="v"/>
<glyph d="M139 92h261q10 -13 32 -41q23 -28 33 -41q5 -5 5 -7q-2 -4 -10 -5h-172h-142h-71q-3 4 -11 13q-7 9 -10 13q-7 8 -7 11v1zM77 394l74 -52l-12 -233l-92 -50l16 304q1 5 7 15q5 11 7 16zM82 717l86 -56l-12 -198l-79 -47l-11 24zM172 450h233l65 -51l-64 -44h-248 q-3 3 -57 44q-5 4 -9 7zM475 388l34 -38l-19 -288l-18 -26l-66 79l12 227zM525 762q5 -13 5 -16q-2 -50 -8 -146q-6 -98 -8 -147l-35 -37l-56 42l12 214z" glyph-name="w" unicode="w"/>
<glyph d="M77 394l74 -52l-12 -233l-92 -50l16 304q1 5 7 15q5 11 7 16zM82 717l86 -56l-12 -198l-79 -47l-11 24zM172 450h233l65 -51l-64 -44h-248q-3 3 -57 44q-5 4 -9 7zM475 388l34 -38l-19 -288l-18 -26l-66 79l12 227zM525 762q5 -13 5 -16q-2 -50 -8 -146q-6 -98 -8 -147 l-35 -37l-56 42l12 214z" glyph-name="x" unicode="x"/>
<glyph d="M139 92h261q10 -13 32 -41q23 -28 33 -41q5 -5 5 -7q-2 -4 -10 -5h-172h-142h-71q-3 4 -11 13q-7 9 -10 13q-7 8 -7 11v1zM82 717l86 -56l-12 -198l-79 -47l-11 24zM172 450h233l65 -51l-64 -44h-248q-3 3 -57 44q-5 4 -9 7zM475 388l34 -38l-19 -288l-18 -26l-66 79 l12 227zM525 762q5 -13 5 -16q-2 -50 -8 -146q-6 -98 -8 -147l-35 -37l-56 42l12 214z" glyph-name="y" unicode="y"/>
<glyph d="M77 394l74 -52l-12 -233l-92 -50l16 304q1 5 7 15q5 11 7 16zM172 450h233l65 -51l-64 -44h-248q-3 3 -57 44q-5 4 -9 7zM525 762q5 -13 5 -16q-2 -50 -8 -146q-6 -98 -8 -147l-35 -37l-56 42l12 214z" glyph-name="z" unicode="z"/>
<glyph glyph-name="braceleft" unicode="{"/>
<glyph d="M475 388l34 -38l-19 -288l-18 -26l-66 79l12 227zM525 762q5 -13 5 -16q-2 -50 -8 -146q-6 -98 -8 -147l-35 -37l-56 42l12 214z" glyph-name="bar" unicode="|"/>
<glyph glyph-name="braceright" unicode="}"/>
<glyph d="M139 92h261q10 -13 32 -41q23 -28 33 -41q5 -5 5 -7q-2 -4 -10 -5h-172h-142h-71q-3 4 -11 13q-7 9 -10 13q-7 8 -7 11v1zM77 394l74 -52l-12 -233l-92 -50l16 304q1 5 7 15q5 11 7 16zM155 780l359 -5l-91 -90h-255l-80 50zM525 762q5 -13 5 -16q-2 -50 -8 -146 q-6 -98 -8 -147l-35 -37l-56 42l12 214z" glyph-name="asciitilde" unicode="~"/>
<glyph glyph-name="uni00A0" unicode=" "/>
<glyph glyph-name="exclamdown" unicode="¡"/>
<glyph glyph-name="cent" unicode="¢"/>
<glyph glyph-name="sterling" unicode="£"/>
<glyph glyph-name="currency" unicode="¤"/>
<glyph glyph-name="yen" unicode="¥"/>
<glyph glyph-name="brokenbar" unicode="¦"/>
<glyph glyph-name="section" unicode="§"/>
<glyph glyph-name="dieresis" unicode="¨"/>
<glyph glyph-name="copyright" unicode="©"/>
<glyph glyph-name="ordfeminine" unicode="ª"/>
<glyph glyph-name="guillemotleft" unicode="«"/>
<glyph glyph-name="logicalnot" unicode="¬"/>
<glyph glyph-name="uni00AD" unicode="­"/>
<glyph glyph-name="registered" unicode="®"/>
<glyph glyph-name="macron" unicode="¯"/>
<glyph d="M172 450h233l65 -51l-64 -44h-248q-3 3 -57 44q-5 4 -9 7zM82 717l86 -56l-12 -198l-79 -47l-11 24zM155 780l359 -5l-91 -90h-255l-80 50zM525 762q5 -13 5 -16q-2 -50 -8 -146q-6 -98 -8 -147l-35 -37l-56 42l12 214z" glyph-name="degree" unicode="°"/>
<glyph glyph-name="plusminus" unicode="±"/>
<glyph glyph-name="uni00B2" unicode="²"/>
<glyph glyph-name="uni00B3" unicode="³"/>
<glyph glyph-name="acute" unicode="´"/>
<glyph d="M77 394l74 -52l-12 -233l-92 -50l16 304q1 5 7 15q5 11 7 16zM82 717l86 -56l-12 -198l-79 -47l-11 24zM172 450h233l65 -51l-64 -44h-248q-3 3 -57 44q-5 4 -9 7zM525 762q5 -13 5 -16q-2 -50 -8 -146q-6 -98 -8 -147l-35 -37l-56 42l12 214z" glyph-name="uni00B5" unicode="µ"/>
<glyph glyph-name="paragraph" unicode="¶"/>
<glyph glyph-name="periodcentered" unicode="·"/>
<glyph glyph-name="cedilla" unicode="¸"/>
<glyph glyph-name="uni00B9" unicode="¹"/>
<glyph glyph-name="ordmasculine" unicode="º"/>
<glyph glyph-name="guillemotright" unicode="»"/>
<glyph glyph-name="onequarter" unicode="¼"/>
<glyph glyph-name="onehalf" unicode="½"/>
<glyph glyph-name="threequarters" unicode="¾"/>
<glyph glyph-name="questiondown" unicode="¿"/>
<glyph glyph-name="Agrave" unicode="À"/>
<glyph glyph-name="Aacute" unicode="Á"/>
<glyph glyph-name="Acircumflex" unicode="Â"/>
<glyph glyph-name="Atilde" unicode="Ã"/>
<glyph glyph-name="Adieresis" unicode="Ä"/>
<glyph glyph-name="Aring" unicode="Å"/>
<glyph glyph-name="AE" unicode="Æ"/>
<glyph glyph-name="Ccedilla" unicode="Ç"/>
<glyph glyph-name="Egrave" unicode="È"/>
<glyph glyph-name="Eacute" unicode="É"/>
<glyph glyph-name="Ecircumflex" unicode="Ê"/>
<glyph glyph-name="Edieresis" unicode="Ë"/>
<glyph glyph-name="Igrave" unicode="Ì"/>
<glyph glyph-name="Iacute" unicode="Í"/>
<glyph glyph-name="Icircumflex" unicode="Î"/>
<glyph glyph-name="Idieresis" unicode="Ï"/>
<glyph glyph-name="Eth" unicode="Ð"/>
<glyph glyph-name="Ntilde" unicode="Ñ"/>
<glyph glyph-name="Ograve" unicode="Ò"/>
<glyph glyph-name="Oacute" unicode="Ó"/>
<glyph glyph-name="Ocircumflex" unicode="Ô"/>
<glyph glyph-name="Otilde" unicode="Õ"/>
<glyph glyph-name="Odieresis" unicode="Ö"/>
<glyph glyph-name="multiply" unicode="×"/>
<glyph glyph-name="Oslash" unicode="Ø"/>
<glyph glyph-name="Ugrave" unicode="Ù"/>
<glyph glyph-name="Uacute" unicode="Ú"/>
<glyph glyph-name="Ucircumflex" unicode="Û"/>
<glyph glyph-name="Udieresis" unicode="Ü"/>
<glyph glyph-name="Yacute" unicode="Ý"/>
<glyph glyph-name="Thorn" unicode="Þ"/>
<glyph glyph-name="germandbls" unicode="ß"/>
<glyph d="M139 92h261q10 -13 32 -41q23 -28 33 -41q5 -5 5 -7q-2 -4 -10 -5h-172h-142h-71q-3 4 -11 13q-7 9 -10 13q-7 8 -7 11v1zM77 394l74 -52l-12 -233l-92 -50l16 304q1 5 7 15q5 11 7 16zM155 780l359 -5l-91 -90h-255l-80 50zM172 450h233l65 -51l-64 -44h-248 q-3 3 -57 44q-5 4 -9 7zM475 388l34 -38l-19 -288l-18 -26l-66 79l12 227zM525 762q5 -13 5 -16q-2 -50 -8 -146q-6 -98 -8 -147l-35 -37l-56 42l12 214z" glyph-name="agrave" unicode="à"/>
<glyph d="M139 92h261q10 -13 32 -41q23 -28 33 -41q5 -5 5 -7q-2 -4 -10 -5h-172h-142h-71q-3 4 -11 13q-7 9 -10 13q-7 8 -7 11v1zM77 394l74 -52l-12 -233l-92 -50l16 304q1 5 7 15q5 11 7 16zM155 780l359 -5l-91 -90h-255l-80 50zM172 450h233l65 -51l-64 -44h-248 q-3 3 -57 44q-5 4 -9 7zM475 388l34 -38l-19 -288l-18 -26l-66 79l12 227zM525 762q5 -13 5 -16q-2 -50 -8 -146q-6 -98 -8 -147l-35 -37l-56 42l12 214z" glyph-name="aacute" unicode="á"/>
<glyph glyph-name="acircumflex" unicode="â"/>
<glyph glyph-name="atilde" unicode="ã"/>
<glyph glyph-name="adieresis" unicode="ä"/>
<glyph glyph-name="aring" unicode="å"/>
<glyph glyph-name="ae" unicode="æ"/>
<glyph glyph-name="ccedilla" unicode="ç"/>
<glyph glyph-name="egrave" unicode="è"/>
<glyph d="M139 92h261q10 -13 32 -41q23 -28 33 -41q5 -5 5 -7q-2 -4 -10 -5h-172h-142h-71q-3 4 -11 13q-7 9 -10 13q-7 8 -7 11v1zM77 394l74 -52l-12 -233l-92 -50l16 304q1 5 7 15q5 11 7 16zM82 717l86 -56l-12 -198l-79 -47l-11 24zM155 780l359 -5l-91 -90h-255l-80 50z M172 450h233l65 -51l-64 -44h-248q-3 3 -57 44q-5 4 -9 7zM525 762q5 -13 5 -16q-2 -50 -8 -146q-6 -98 -8 -147l-35 -37l-56 42l12 214z" glyph-name="eacute" unicode="é"/>
<glyph glyph-name="ecircumflex" unicode="ê"/>
<glyph glyph-name="edieresis" unicode="ë"/>
<glyph glyph-name="igrave" unicode="ì"/>
<glyph glyph-name="iacute" unicode="í"/>
<glyph glyph-name="icircumflex" unicode="î"/>
<glyph glyph-name="idieresis" unicode="ï"/>
<glyph glyph-name="eth" unicode="ð"/>
<glyph glyph-name="ntilde" unicode="ñ"/>
<glyph glyph-name="ograve" unicode="ò"/>
<glyph glyph-name="oacute" unicode="ó"/>
<glyph glyph-name="ocircumflex" unicode="ô"/>
<glyph glyph-name="otilde" unicode="õ"/>
<glyph glyph-name="odieresis" unicode="ö"/>
<glyph glyph-name="divide" unicode="÷"/>
<glyph glyph-name="oslash" unicode="ø"/>
<glyph glyph-name="ugrave" unicode="ù"/>
<glyph glyph-name="uacute" unicode="ú"/>
<glyph glyph-name="ucircumflex" unicode="û"/>
<glyph glyph-name="udieresis" unicode="ü"/>
<glyph glyph-name="yacute" unicode="ý"/>
<glyph glyph-name="thorn" unicode="þ"/>
</font>
</defs>
</svg>
